<svg viewBox="0 0 220 160" width="100%" height="100%" role="img" aria-hidden="true" xmlns="http://www.w3.org/2000/svg" style="overflow: visible;">
  <g style="transform-origin: 110px 80px">
    <path
      d="M 20 110 L 30 110 A 20 20 0 0 0 50 90 A 20 20 0 0 1 70 70 A 20 20 0 0 1 90 90 A 20 20 0 0 0 110 110 A 20 20 0 0 0 130 90 A 20 20 0 0 1 150 70 A 20 20 0 0 1 170 90 A 20 20 0 0 0 190 110 L 200 110"
      fill="none"
      stroke="currentColor"
      stroke-width="10"
      stroke-linecap="round"
      stroke-linejoin="round"
    />
    <circle cx="70" cy="70" r="6" fill="currentColor" />
    <circle cx="110" cy="110" r="6" fill="currentColor" />
    <circle cx="150" cy="70" r="6" fill="currentColor" />
    <circle cx="200" cy="110" r="5.5" fill="#22d3ee" />
  </g>
</svg>
